HIERARCHY
ROOT root
{
	OFFSET 0.000000 0.000000 0.000000
	CHANNELS 6 Xposition Yposition Zposition Zrotation Yrotation Xrotation
	JOINT lhip
	{
		OFFSET 0.058581 -0.082280 -0.017664
		CHANNELS 3 Zrotation Yrotation Xrotation
		JOINT lknee
		{
			OFFSET 0.043451 -0.386469 0.008037
			CHANNELS 3 Zrotation Yrotation Xrotation
			JOINT lankle
			{
				OFFSET -0.014790 -0.426874 -0.037428
				CHANNELS 3 Zrotation Yrotation Xrotation
				JOINT ltoe
				{
					OFFSET 0.041054 -0.060286 0.122042
					CHANNELS 3 Zrotation Yrotation Xrotation
					End Site
					{
						OFFSET 0.000000 0.000000 0.000000
					}
				}
			}
		}
	}
	JOINT rhip
	{
		OFFSET -0.060310 -0.090513 -0.013543
		CHANNELS 3 Zrotation Yrotation Xrotation
		JOINT rknee
		{
			OFFSET -0.043257 -0.383688 -0.004843
			CHANNELS 3 Zrotation Yrotation Xrotation
			JOINT rankle
			{
				OFFSET 0.019056 -0.420046 -0.034562
				CHANNELS 3 Zrotation Yrotation Xrotation
				JOINT rtoe
				{
					OFFSET -0.034840 -0.062106 0.130323
					CHANNELS 3 Zrotation Yrotation Xrotation
					End Site
					{
						OFFSET 0.000000 0.000000 0.000000
					}
				}
			}
		}
	}
	JOINT lowerback
	{
		OFFSET 0.004439 0.124404 -0.038385
		CHANNELS 3 Zrotation Yrotation Xrotation
		JOINT upperback
		{
			OFFSET 0.004488 0.137956 0.026820
			CHANNELS 3 Zrotation Yrotation Xrotation
			JOINT chest
			{
				OFFSET -0.002265 0.056032 0.002855
				CHANNELS 3 Zrotation Yrotation Xrotation
				JOINT lowerneck
				{
					OFFSET -0.013390 0.211636 -0.033468
					CHANNELS 3 Zrotation Yrotation Xrotation
					JOINT upperneck
					{
						OFFSET 0.010113 0.088937 0.050410
						CHANNELS 3 Zrotation Yrotation Xrotation
						End Site
						{
							OFFSET 0.000000 0.000000 0.000000
						}
					}
				}
				JOINT lclavicle
				{
					OFFSET 0.071702 0.114000 -0.018898
					CHANNELS 3 Zrotation Yrotation Xrotation
					JOINT lshoulder
					{
						OFFSET 0.122921 0.045205 -0.019046
						CHANNELS 3 Zrotation Yrotation Xrotation
						JOINT lelbow
						{
							OFFSET 0.255332 -0.015649 -0.022946
							CHANNELS 3 Zrotation Yrotation Xrotation
							JOINT lwrist
							{
								OFFSET 0.265709 0.012698 -0.007375
								CHANNELS 3 Zrotation Yrotation Xrotation
								End Site
								{
									OFFSET 0.000000 0.000000 0.000000
								}
							}
						}
					}
				}
				JOINT rclavicle
				{
					OFFSET -0.082954 0.112472 -0.023707
					CHANNELS 3 Zrotation Yrotation Xrotation
					JOINT rshoulder
					{
						OFFSET -0.113228 0.046853 -0.008472
						CHANNELS 3 Zrotation Yrotation Xrotation
						JOINT relbow
						{
							OFFSET -0.260127 -0.014369 -0.031269
							CHANNELS 3 Zrotation Yrotation Xrotation
							JOINT rwrist
							{
								OFFSET -0.269108 0.006794 -0.006027
								CHANNELS 3 Zrotation Yrotation Xrotation
								End Site
								{
									OFFSET 0.000000 0.000000 0.000000
								}
							}
						}
					}
				}
			}
		}
	}
}
MOTION
Frames: 11
Frame Time: 0.033333
-0.604456 1.359584 1.172581 5.275259 -0.457429 86.085464 -2.892429 -0.470294 6.855411 -1.921394 -13.160279 4.682198 3.163561 5.759699 -12.083530 0.000000 -0.000000 0.000000 3.532193 -2.768770 2.871183 0.562783 -1.474986 12.420792 0.810122 -7.864209 -12.842580 0.000000 -0.000000 0.000000 1.592075 0.045832 10.237873 -0.088825 -1.245731 -1.786621 -0.471168 -0.872611 0.355167 -0.689644 7.563887 -8.366873 -2.542558 2.167938 8.337499 -29.117144 -1.078700 0.893169 -57.172612 -6.756207 11.229492 5.946528 -23.692703 9.800836 -3.880120 -5.233818 -2.969732 29.616385 4.550271 2.985853 56.925636 4.940269 14.659362 -11.954267 19.409970 -4.428921 4.469797 3.985530 -6.232011 
-0.604414 1.359393 1.172400 5.254980 -0.597183 86.039035 -2.913672 -0.328959 6.924929 -2.146754 -12.850471 4.534378 3.163468 5.783691 -11.820505 0.000000 -0.000000 0.000000 3.344013 -2.620742 2.895428 0.635821 -1.481218 12.553150 0.940116 -7.903253 -12.921451 0.000000 -0.000000 0.000000 1.408140 0.090668 10.065443 -0.017035 -1.232431 -1.707125 -0.537959 -0.899809 0.314408 -0.292572 7.313273 -6.820575 -2.618424 1.773609 9.725394 -29.010361 -0.991340 1.305447 -57.244411 -7.107378 11.304418 6.162024 -23.648714 9.524004 -4.038259 -5.150091 -3.233030 29.574016 4.451064 3.026249 57.144887 5.052761 14.833951 -12.162603 19.209929 -4.591346 4.737543 3.953177 -6.324049 
-0.604981 1.359435 1.172120 5.229396 -0.633555 86.031091 -2.784131 -0.360870 6.971443 -2.272775 -13.108782 4.474272 3.156103 5.672682 -11.994365 0.000000 -0.000000 0.000000 3.359039 -2.582224 2.569572 0.622421 -1.483890 13.136335 0.981678 -7.973597 -13.175323 0.000000 -0.000000 0.000000 1.215891 0.047250 9.840178 0.114484 -1.244455 -1.650130 -0.647565 -0.790524 0.329853 0.230598 7.211149 -5.019625 -2.409900 1.400110 11.264779 -29.004940 -0.864808 1.602961 -57.158598 -7.380907 11.301278 6.427880 -23.828422 9.234130 -4.036896 -4.888134 -3.217137 29.830464 4.270975 3.133064 57.116940 5.313751 14.798552 -12.271082 19.123137 -4.686471 4.955768 3.878479 -6.241080 
-0.605801 1.359111 1.171330 5.051872 -0.737693 85.926680 -2.685908 -0.323036 7.173918 -2.541653 -13.135108 4.215199 3.277429 5.792072 -12.108510 0.000000 -0.000000 0.000000 3.390705 -2.396807 2.019804 0.478441 -1.530515 14.372830 0.836386 -8.021412 -13.713858 0.000000 -0.000000 0.000000 0.910217 0.014975 9.736002 0.250569 -1.067303 -1.635234 -0.672448 -0.743584 0.399487 0.604606 6.728993 -2.564714 -2.409099 0.986591 12.849733 -28.752701 -0.690133 1.892448 -57.294783 -7.743438 11.292539 6.524739 -24.006701 8.858571 -4.040105 -4.635113 -3.457874 29.728648 3.997422 3.254868 57.329403 5.607222 14.803132 -12.227581 19.510608 -4.628259 5.226219 3.879345 -6.355237 
-0.606307 1.358761 1.170781 4.990572 -0.845625 85.756477 -2.716719 -0.235817 7.355814 -2.595092 -13.395821 4.229152 3.430954 5.807766 -12.259854 0.000000 -0.000000 0.000000 3.221291 -2.377469 1.667230 0.570908 -1.619126 15.386164 0.809143 -8.034611 -14.343434 0.000000 -0.000000 0.000000 0.716725 0.018197 9.851678 0.316464 -1.029672 -1.603029 -0.709493 -0.780809 0.478341 1.019770 6.489977 -1.478036 -2.544766 0.673967 13.975521 -28.666247 -0.589357 1.968740 -57.239343 -7.960261 11.311748 6.549753 -24.049862 8.875192 -3.873627 -4.705495 -3.369297 29.665910 3.879563 3.105838 57.539286 5.736656 14.876704 -12.278374 19.698404 -4.588786 5.248877 3.965145 -6.394116 
-0.607238 1.358198 1.169838 5.100537 -1.149394 85.536147 -2.808449 -0.131431 7.480385 -2.995083 -13.608267 4.415469 3.559985 5.716156 -12.509864 0.000000 -0.000000 0.000000 3.018768 -2.233139 1.122515 0.367569 -1.930143 16.912262 0.886796 -8.188750 -15.002528 0.000000 -0.000000 0.000000 0.393964 -0.088288 9.910459 0.337496 -1.099507 -1.454833 -0.832556 -0.874981 0.665064 1.233963 6.444440 0.139025 -2.601860 0.446497 14.889376 -28.630877 -0.558045 2.189952 -56.984655 -8.154838 11.178183 6.695853 -24.243217 8.701858 -3.815953 -4.442457 -3.252263 29.787873 3.945364 3.158963 57.748416 5.970830 14.893271 -12.408542 20.037550 -4.570131 5.384741 3.909194 -6.292961 
-0.608030 1.357043 1.168693 5.090256 -1.426207 85.226580 -3.026307 0.017637 7.795499 -3.070856 -13.833505 4.550550 3.782876 5.795092 -12.797621 0.000000 -0.000000 0.000000 2.777765 -2.224204 0.741071 0.274371 -2.105566 18.350509 0.799040 -8.276338 -15.750616 0.000000 -0.000000 0.000000 0.230446 -0.298941 10.078849 0.330232 -1.208347 -1.305388 -1.025687 -0.779660 0.868377 1.325032 6.310844 1.687952 -2.910568 0.299254 15.605141 -28.610443 -0.510425 2.153712 -56.696470 -8.090066 11.178200 6.638779 -24.453997 8.752978 -3.753278 -4.516998 -3.244765 29.865279 4.022606 3.339317 57.808393 6.137642 14.863168 -12.393072 20.622589 -4.515576 5.367334 3.881094 -6.261778 
-0.609091 1.354732 1.167816 5.034808 -1.577909 84.710754 -3.072036 0.052780 8.220736 -3.273478 -13.953332 5.143390 3.901509 5.889426 -13.443616 0.000000 -0.000000 0.000000 2.491482 -2.406819 0.991768 0.435203 -2.325481 19.236968 0.805420 -8.211036 -16.443358 0.000000 -0.000000 0.000000 0.303721 -0.213363 10.385838 0.273105 -1.148255 -1.111054 -1.175700 -0.895252 1.062274 1.405139 6.015939 3.103180 -3.041520 0.248764 16.322268 -28.521589 -0.609199 2.533839 -56.594147 -8.162075 10.992706 6.827635 -24.761916 8.571921 -4.008375 -4.486749 -3.620963 29.848717 4.005647 3.503326 57.984341 6.151425 14.821689 -12.621561 21.120885 -4.480421 5.468157 3.854900 -6.293812 
-0.610745 1.352123 1.166606 4.963155 -1.671845 84.477506 -3.056941 0.205803 8.284500 -3.338686 -14.229120 5.899480 4.118212 5.886171 -13.814493 0.000000 -0.000000 0.000000 2.438774 -2.581273 1.236089 0.503511 -2.241255 19.658606 0.721442 -8.001510 -16.868749 0.000000 -0.000000 0.000000 0.444590 -0.205413 10.337836 0.229381 -1.267129 -0.881321 -1.360934 -0.798382 1.223265 1.447311 5.735987 4.530770 -3.102336 0.324410 16.700899 -28.340071 -0.432796 2.522971 -56.808084 -8.094375 10.824524 7.010371 -24.622775 8.672306 -4.319865 -3.935923 -3.365891 29.699090 3.937680 3.682152 58.218888 6.004853 14.716713 -12.552129 21.704435 -4.371418 5.460328 3.818105 -6.385208 
-0.613911 1.347333 1.165681 5.113389 -1.616997 84.162540 -2.886903 0.028275 8.025508 -3.681168 -14.079435 7.583546 4.140715 6.214874 -14.709631 0.000000 -0.000000 0.000000 2.807843 -2.831034 2.142957 0.441508 -1.925762 19.198430 0.461398 -8.181320 -17.356033 0.000000 -0.000000 0.000000 0.710863 -0.015053 10.081414 0.299569 -1.358639 -0.479868 -1.456426 -0.965925 1.478156 1.405704 5.615751 5.997021 -3.357213 0.338777 17.319621 -28.625179 -0.122805 2.688724 -56.456166 -8.061104 10.640878 6.936592 -24.697079 8.829878 -4.449410 -3.841580 -3.561050 29.821616 3.591822 3.722829 58.083280 5.880795 14.671340 -12.342933 21.809844 -4.033133 5.599418 3.666212 -6.536925 
-0.616045 1.343805 1.164733 5.348437 -1.633960 84.020765 -3.139558 -0.069162 7.164494 -3.752963 -13.826004 10.086368 4.113567 6.447273 -15.502520 0.000000 -0.000000 0.000000 2.877154 -2.905869 2.694261 0.642029 -1.788144 18.968698 0.331212 -8.082076 -17.707000 0.000000 -0.000000 0.000000 0.734435 0.104447 10.113534 0.431095 -1.481073 -0.507134 -1.365198 -0.935497 1.760795 1.395201 5.453735 6.962438 -3.221187 0.424140 17.380797 -28.465828 0.068683 2.734392 -56.807537 -7.866007 10.576933 6.708287 -24.771935 9.099309 -4.443560 -3.500175 -3.706867 29.649185 3.358950 3.773071 58.024538 5.694213 14.412525 -12.115752 21.809062 -3.886171 5.554097 3.629844 -6.733146 
